<?xml version="1.0" standalone="no"?>
<!DOCTYPE svg PUBLIC "-//W3C//DTD SVG 20010904//EN"
 "http://www.w3.org/TR/2001/REC-SVG-20010904/DTD/svg10.dtd">
<svg version="1.0" xmlns="http://www.w3.org/2000/svg"
 width="398.000000pt" height="352.000000pt" viewBox="0 0 398.000000 352.000000"
 preserveAspectRatio="xMidYMid meet">

<g transform="translate(0.000000,352.000000) scale(0.100000,-0.100000)"
fill="#000000" stroke="none">
<path d="M1570 3505 c-86 -20 -245 -72 -295 -98 -76 -38 -218 -128 -305 -193
l-88 -65 -103 -3 c-111 -2 -268 -31 -363 -66 -95 -36 -148 -71 -227 -149 -62
-62 -85 -93 -122 -171 -60 -125 -71 -179 -65 -331 4 -101 10 -139 32 -204 102
-294 325 -455 693 -500 l53 -7 15 -52 c12 -42 13 -67 5 -125 -25 -179 -79
-364 -207 -711 l-64 -175 20 -43 c14 -28 27 -42 40 -42 11 0 21 -7 23 -16 2
-12 26 2 93 54 142 109 173 122 302 122 238 0 577 -60 788 -138 149 -56 330
-130 440 -182 162 -76 577 -322 565 -334 -19 -19 -10 -36 25 -53 33 -16 37
-16 85 7 46 22 50 26 50 59 0 87 22 375 36 474 9 60 51 251 93 425 l78 317
100 7 c111 7 195 32 293 85 119 65 248 194 323 323 91 158 123 472 60 593 -13
27 -13 35 3 91 24 81 24 230 0 311 -51 171 -166 309 -327 388 -120 60 -200 77
-362 77 -195 0 -370 -45 -483 -125 -27 -19 -52 -35 -55 -35 -3 0 -25 29 -48
65 -118 183 -346 338 -589 402 -82 22 -124 26 -272 29 -128 2 -192 -1 -240
-11z m376 -96 c236 -33 478 -164 608 -329 23 -30 78 -116 121 -190 92 -161
100 -170 137 -170 27 0 28 2 28 48 0 38 -8 60 -44 117 -25 38 -43 72 -40 76 9
15 155 80 224 99 108 30 290 38 400 16 262 -51 464 -246 478 -461 6 -96 -9
-152 -79 -310 -33 -71 -59 -131 -59 -132 0 -12 41 2 81 27 l48 29 7 -22 c5
-12 8 -67 7 -122 -1 -187 -79 -361 -222 -498 -85 -81 -170 -131 -277 -163 -75
-23 -281 -26 -334 -5 -37 15 -370 191 -370 195 0 2 26 20 58 41 76 51 160 124
212 187 47 55 44 55 -65 -12 -419 -255 -768 -336 -1216 -281 -128 15 -185 27
-247 51 -204 79 -359 230 -461 452 -21 46 -41 92 -45 102 -11 33 -36 -3 -43
-62 -7 -59 8 -126 43 -196 14 -27 22 -51 19 -54 -2 -3 -78 -6 -167 -6 -153 -1
-168 1 -236 26 -156 57 -309 183 -371 306 -48 95 -65 167 -65 277 -1 119 25
211 84 301 85 130 302 247 562 303 l87 19 -24 -63 -23 -63 23 -6 c20 -5 41 11
132 102 129 130 234 205 386 277 160 75 276 102 464 104 56 0 137 -4 179 -10z
m-896 -1724 c136 -138 314 -219 570 -260 268 -43 697 9 894 107 43 22 83 37
90 35 6 -3 53 -34 103 -69 60 -43 137 -84 228 -123 157 -67 146 -45 100 -204
-84 -295 -170 -782 -160 -911 7 -93 -3 -138 -35 -159 l-24 -16 16 24 17 24
-157 100 c-208 132 -260 161 -437 250 -233 118 -417 193 -550 226 -323 80
-535 98 -798 65 -143 -17 -153 -20 -210 -56 -41 -27 -57 -43 -53 -54 3 -8 -2
-30 -12 -47 l-17 -32 -3 34 c-3 25 15 71 72 190 167 348 243 659 202 841 -7
36 -13 66 -11 68 3 3 84 19 105 21 9 1 40 -24 70 -54z"/>
</g>
</svg>
